<svg preserveAspectRatio="xMidYMid meet" data-bbox="0 0 532.178 189.914" xmlns="http://www.w3.org/2000/svg" viewBox="0 0 532.178 189.914" height="190" width="533" data-type="color" role="presentation" aria-hidden="true" aria-label="">
    <g>
        <path fill="#171923" d="M157.592 98.096V30.473h10.992v11.41c2.041-4.082 4.87-7.19 8.488-9.323 3.617-2.226 7.838-3.34 12.661-3.34 10.575 0 17.347 4.592 20.315 13.776 2.041-4.267 5.056-7.607 9.044-10.019 3.989-2.504 8.581-3.756 13.775-3.756 15.027 0 22.541 8.905 22.541 26.715v42.16h-11.27V56.492c0-6.215-1.113-10.76-3.34-13.635-2.133-2.969-5.705-4.453-10.714-4.453-5.472 0-9.832 1.948-13.079 5.844-3.247 3.896-4.87 9.09-4.87 15.584v38.264h-11.27V56.492c0-6.215-1.113-10.76-3.34-13.635-2.133-2.969-5.704-4.453-10.714-4.453-5.565 0-9.971 1.948-13.218 5.844-3.154 3.896-4.731 9.09-4.731 15.584v38.264h-11.27Z" data-color="1"></path>
        <path fill="#171923" d="M112.664 99.348c-10.668 0-19.109-3.108-25.324-9.323-6.215-6.307-9.322-14.841-9.322-25.602 0-6.957 1.391-13.079 4.174-18.366 2.783-5.38 6.586-9.508 11.41-12.384 4.916-2.968 10.574-4.452 16.975-4.452 9.183 0 16.372 2.968 21.567 8.905 5.194 5.844 7.791 13.914 7.791 24.21v4.314H89.01c.37 7.699 2.597 13.59 6.678 17.67 4.082 3.99 9.74 5.984 16.976 5.984 4.081 0 7.977-.603 11.688-1.81 3.71-1.298 7.235-3.385 10.574-6.26l3.896 7.93c-3.061 2.876-6.957 5.149-11.688 6.819a45.469 45.469 0 0 1-14.47 2.365Zm-1.809-61.779c-6.401 0-11.456 1.994-15.166 5.983-3.71 3.989-5.89 9.23-6.54 15.723h41.047c-.279-6.864-2.088-12.198-5.427-16.001-3.247-3.803-7.885-5.705-13.914-5.705Z" data-color="1"></path>
        <path fill="#171923" d="M34.229 99.347c-5.38 0-10.111-1.206-14.193-3.618-3.988-2.412-7.003-5.705-9.044-9.879v12.245H0V0h11.27v42.16c1.948-3.989 4.963-7.143 9.045-9.462 4.081-2.319 8.72-3.478 13.914-3.478 6.03 0 11.27 1.438 15.723 4.313 4.545 2.783 8.023 6.818 10.435 12.105 2.505 5.195 3.757 11.41 3.757 18.645 0 7.143-1.252 13.358-3.757 18.645-2.412 5.195-5.89 9.23-10.435 12.106-4.453 2.875-9.694 4.313-15.723 4.313Zm-2.366-9.044c6.308 0 11.364-2.227 15.167-6.68 3.803-4.544 5.704-10.991 5.704-19.34 0-8.441-1.901-14.888-5.704-19.34-3.803-4.453-8.859-6.68-15.167-6.68-6.307 0-11.363 2.227-15.166 6.68-3.803 4.452-5.705 10.899-5.705 19.34 0 8.349 1.902 14.796 5.705 19.34 3.803 4.453 8.859 6.68 15.166 6.68Z" data-color="1"></path>
        <path fill="#171923" d="M380.94 99.345c-10.667 0-19.109-3.108-25.324-9.323-6.215-6.307-9.322-14.841-9.322-25.602 0-6.956 1.391-13.079 4.174-18.366 2.783-5.38 6.586-9.508 11.41-12.384 4.916-2.968 10.575-4.452 16.975-4.452 9.183 0 16.372 2.968 21.567 8.905 5.195 5.844 7.792 13.914 7.792 24.21v4.314h-50.926c.371 7.699 2.597 13.59 6.679 17.67 4.081 3.99 9.74 5.984 16.975 5.984 4.082 0 7.978-.603 11.688-1.809 3.71-1.299 7.235-3.386 10.575-6.261l3.896 7.93c-3.061 2.876-6.957 5.149-11.688 6.819a45.482 45.482 0 0 1-14.471 2.365Zm-1.809-61.779c-6.4 0-11.456 1.995-15.166 5.983-3.711 3.989-5.89 9.23-6.54 15.723h41.047c-.278-6.864-2.087-12.198-5.427-16.001-3.246-3.803-7.884-5.705-13.914-5.705Z" data-color="1"></path>
        <path fill="#171923" d="M328.566 99.344c-7.978 0-13.961-2.087-17.949-6.261-3.989-4.267-5.984-10.39-5.984-18.367v-35.48h-13.218v-8.767h13.218V9.737h11.271V30.47h21.428v8.766h-21.428v34.368c0 5.288 1.113 9.323 3.339 12.105 2.227 2.69 5.844 4.035 10.853 4.035 1.484 0 2.969-.185 4.453-.556a78.823 78.823 0 0 0 4.035-1.113l1.948 8.627c-1.206.649-2.968 1.252-5.287 1.808-2.319.557-4.546.835-6.679.835Z" data-color="1"></path>
        <path fill="#171923" d="M516.139 13.634V.973h13.914v12.661h-13.914Zm1.391 84.46V30.47h11.271v67.622H517.53Z" data-color="1"></path>
        <path fill="#171923" d="m464.749 98.091-29.08-67.622h12.244l22.402 54.821 22.68-54.821h11.549l-29.22 67.622h-10.575Z" data-color="1"></path>
        <path fill="#0077FF" d="M278.304 96.178h.439c7.494 0 13.583-6.089 13.583-13.583s-6.089-13.583-13.583-13.583h-.439c-7.494 0-13.583 6.089-13.583 13.583s6.089 13.583 13.583 13.583Z" data-color="2"></path>
        <path fill="#0077FF" d="M427.375 96.178h.439c7.494 0 13.583-6.089 13.583-13.583s-6.089-13.583-13.583-13.583h-.439c-7.494 0-13.583 6.089-13.583 13.583s6.089 13.583 13.583 13.583Z" data-color="2"></path>
        <path fill="#171923" d="M519.017 177.703c-2.578 0-5.02-.362-7.326-1.086-2.307-.724-4.206-1.741-5.699-3.053l1.764-3.866a16.78 16.78 0 0 0 5.359 2.917c1.99.588 4.003.882 6.038.882 2.578 0 4.523-.475 5.834-1.425 1.312-.95 1.967-2.239 1.967-3.867 0-1.266-.429-2.261-1.289-2.985-.859-.769-2.216-1.357-4.07-1.764l-6.173-1.356c-5.608-1.222-8.412-4.116-8.412-8.684 0-2.985 1.176-5.382 3.527-7.191 2.397-1.809 5.518-2.713 9.362-2.713 2.261 0 4.41.362 6.445 1.085 2.08.679 3.799 1.696 5.156 3.053l-1.832 3.867c-1.312-1.221-2.849-2.149-4.613-2.782-1.719-.678-3.437-1.017-5.156-1.017-2.532 0-4.455.497-5.766 1.492-1.312.995-1.967 2.307-1.967 3.935 0 2.532 1.673 4.161 5.02 4.884l6.173 1.289c2.894.633 5.088 1.651 6.58 3.053 1.493 1.357 2.239 3.211 2.239 5.563 0 3.03-1.198 5.427-3.595 7.191-2.397 1.718-5.586 2.578-9.566 2.578Z" data-color="1"></path>
        <path fill="#171923" d="M484.791 177.703c-3.211 0-5.992-.701-8.344-2.103-2.352-1.402-4.183-3.37-5.495-5.902-1.266-2.578-1.899-5.608-1.899-9.091 0-3.482.633-6.49 1.899-9.022 1.312-2.578 3.143-4.568 5.495-5.97 2.352-1.402 5.133-2.103 8.344-2.103 3.166 0 5.925.701 8.277 2.103 2.397 1.402 4.228 3.392 5.495 5.97 1.311 2.532 1.967 5.54 1.967 9.022 0 3.483-.656 6.513-1.967 9.091-1.267 2.532-3.098 4.5-5.495 5.902-2.352 1.402-5.111 2.103-8.277 2.103Zm0-4.41c3.076 0 5.541-1.085 7.395-3.256 1.854-2.216 2.781-5.36 2.781-9.43 0-4.115-.927-7.259-2.781-9.429-1.854-2.171-4.319-3.257-7.395-3.257-3.12 0-5.608 1.086-7.462 3.257-1.809 2.17-2.713 5.314-2.713 9.429 0 4.07.904 7.214 2.713 9.43 1.854 2.171 4.342 3.256 7.462 3.256Z" data-color="1"></path>
        <path fill="#171923" d="M448.063 177.092v-32.97h5.36v5.902c1.764-3.98 5.382-6.173 10.854-6.58l1.967-.204.407 4.749-3.459.407c-3.121.271-5.495 1.266-7.124 2.985-1.628 1.673-2.442 3.98-2.442 6.919v18.792h-5.563Z" data-color="1"></path>
        <path fill="#171923" d="M422.599 177.702c-7.914 0-11.871-4.364-11.871-13.093v-20.487h5.494v20.42c0 2.939.588 5.11 1.764 6.512 1.221 1.402 3.121 2.103 5.699 2.103 2.804 0 5.088-.927 6.852-2.781 1.763-1.9 2.645-4.41 2.645-7.53v-18.724h5.495v32.97h-5.359v-5.563c-1.04 1.99-2.51 3.528-4.41 4.613-1.854 1.04-3.957 1.56-6.309 1.56Z" data-color="1"></path>
        <path fill="#171923" d="M386.659 189.914c-2.85 0-5.541-.385-8.073-1.154-2.488-.723-4.704-1.831-6.648-3.324l1.831-4.002c2.035 1.447 4.048 2.487 6.038 3.12 2.035.633 4.229.95 6.58.95 6.513 0 9.769-3.347 9.769-10.04v-5.834c-.95 2.08-2.442 3.731-4.477 4.952-1.99 1.176-4.274 1.764-6.852 1.764-3.03 0-5.653-.701-7.869-2.103-2.216-1.402-3.935-3.324-5.156-5.767-1.176-2.487-1.764-5.359-1.764-8.615 0-3.256.588-6.106 1.764-8.548 1.221-2.487 2.94-4.409 5.156-5.766 2.216-1.357 4.839-2.035 7.869-2.035 2.578 0 4.862.588 6.852 1.764 2.035 1.175 3.527 2.781 4.477 4.816v-5.97h5.359v30.596c0 5.065-1.266 8.864-3.799 11.397-2.487 2.532-6.173 3.799-11.057 3.799Zm-.814-18.046c3.165 0 5.675-1.085 7.53-3.256 1.854-2.171 2.781-5.088 2.781-8.751 0-3.663-.927-6.558-2.781-8.683-1.855-2.171-4.365-3.257-7.53-3.257-3.121 0-5.608 1.086-7.463 3.257-1.854 2.125-2.781 5.02-2.781 8.683 0 3.663.927 6.58 2.781 8.751 1.855 2.171 4.342 3.256 7.463 3.256Z" data-color="1"></path>
        <path fill="#171923" d="M351.716 177.703c-5.201 0-9.316-1.516-12.347-4.546-3.03-3.075-4.545-7.236-4.545-12.482 0-3.392.679-6.377 2.035-8.955 1.357-2.623 3.211-4.635 5.563-6.037 2.397-1.448 5.156-2.171 8.277-2.171 4.477 0 7.982 1.447 10.515 4.341 2.532 2.85 3.799 6.784 3.799 11.804v2.103h-24.83c.181 3.754 1.267 6.626 3.257 8.616 1.99 1.945 4.748 2.917 8.276 2.917 1.99 0 3.89-.294 5.699-.882 1.809-.633 3.527-1.651 5.155-3.053l1.9 3.867c-1.493 1.402-3.392 2.51-5.699 3.324a22.165 22.165 0 0 1-7.055 1.154Zm-.882-30.121c-3.12 0-5.585.972-7.394 2.917-1.809 1.945-2.872 4.5-3.189 7.666h20.013c-.136-3.347-1.018-5.947-2.646-7.802-1.583-1.854-3.844-2.781-6.784-2.781Z" data-color="1"></path>
        <path fill="#171923" d="M316.217 177.703c-2.577 0-5.02-.362-7.326-1.086-2.307-.724-4.206-1.741-5.699-3.053l1.764-3.866a16.78 16.78 0 0 0 5.359 2.917c1.99.588 4.003.882 6.038.882 2.578 0 4.523-.475 5.834-1.425 1.312-.95 1.968-2.239 1.968-3.867 0-1.266-.43-2.261-1.289-2.985-.86-.769-2.216-1.357-4.071-1.764l-6.173-1.356c-5.608-1.222-8.412-4.116-8.412-8.684 0-2.985 1.176-5.382 3.528-7.191 2.397-1.809 5.517-2.713 9.361-2.713 2.262 0 4.41.362 6.445 1.085 2.08.679 3.799 1.696 5.156 3.053l-1.832 3.867c-1.311-1.221-2.849-2.149-4.613-2.782-1.718-.678-3.437-1.017-5.156-1.017-2.532 0-4.454.497-5.766 1.492-1.312.995-1.967 2.307-1.967 3.935 0 2.532 1.673 4.161 5.02 4.884l6.173 1.289c2.895.633 5.088 1.651 6.581 3.053 1.492 1.357 2.238 3.211 2.238 5.563 0 3.03-1.198 5.427-3.595 7.191-2.397 1.718-5.586 2.578-9.566 2.578Z" data-color="1"></path>
    </g>
</svg>